<?xml version="1.0" standalone="no"?>
<!DOCTYPE svg PUBLIC "-//W3C//DTD SVG 20010904//EN"
 "http://www.w3.org/TR/2001/REC-SVG-20010904/DTD/svg10.dtd">
<svg version="1.0" xmlns="http://www.w3.org/2000/svg"
 width="840.000000pt" height="859.000000pt" viewBox="0 0 840.000000 859.000000"
 preserveAspectRatio="xMidYMid meet">

<g transform="translate(0.000000,859.000000) scale(0.100000,-0.100000)"
fill="#000000" stroke="none">
<path d="M3880 8564 c-19 -2 -96 -11 -170 -20 -398 -45 -861 -165 -1255 -325
-299 -121 -691 -337 -952 -524 -359 -257 -699 -607 -965 -995 -212 -307 -477
-836 -494 -985 l-7 -56 99 -97 c104 -102 250 -218 296 -236 16 -6 28 -15 28
-21 0 -17 -51 -169 -61 -181 -12 -14 -56 -21 -219 -34 -94 -8 -128 -14 -137
-26 -6 -8 -19 -48 -28 -88 -14 -65 -15 -155 -13 -757 l4 -684 37 -195 c61
-315 119 -538 250 -962 12 -38 24 -68 27 -68 3 0 19 57 35 128 54 241 125 418
246 614 l60 97 -40 208 c-84 431 -107 675 -97 1017 4 121 13 271 22 334 15
118 85 408 126 522 20 58 28 67 64 85 80 38 95 61 200 303 177 408 426 776
724 1072 338 335 834 629 1370 812 926 315 1918 247 2815 -192 563 -276 974
-623 1291 -1090 140 -206 289 -484 378 -705 51 -127 77 -162 140 -190 64 -28
67 -35 130 -268 89 -328 101 -443 93 -862 -8 -358 -32 -583 -92 -845 -13 -58
-27 -128 -31 -157 -6 -50 -4 -55 39 -120 108 -162 202 -393 257 -628 39 -166
29 -176 119 122 91 302 158 580 205 857 l26 149 0 679 c0 582 -2 689 -16 748
-8 39 -19 72 -23 74 -4 3 -63 10 -132 16 -209 17 -215 19 -229 49 -7 14 -23
59 -35 99 l-23 73 41 21 c74 36 302 229 354 297 47 62 31 134 -94 406 -125
274 -328 614 -499 836 -191 248 -475 539 -696 715 -658 525 -1597 897 -2417
959 -188 15 -686 27 -751 19z"/>
<path d="M2650 6876 c0 -50 -55 25 510 -696 534 -681 646 -824 903 -1150 37
-47 67 -87 67 -90 0 -5 -5 -12 -886 -1047 l-589 -691 3 -51 4 -51 1482 0 1483
0 12 83 c7 45 21 145 31 222 11 77 42 297 70 490 27 192 50 353 50 356 0 4
-23 12 -52 18 -54 12 -67 6 -68 -30 0 -23 -56 -172 -91 -241 -105 -207 -238
-298 -513 -350 -105 -20 -152 -21 -935 -25 -535 -3 -822 -1 -820 5 4 9 100
124 499 592 96 113 210 246 251 295 42 50 188 220 323 380 136 159 244 295
242 302 -5 11 -338 441 -616 793 -58 74 -138 176 -176 225 -39 50 -137 175
-218 278 l-147 188 783 -4 c717 -3 788 -4 843 -21 235 -70 359 -250 396 -576
6 -52 13 -101 15 -107 2 -8 22 -13 55 -13 l52 0 -7 88 c-4 48 -18 227 -31 397
-14 171 -27 347 -31 393 l-6 82 -1444 0 -1444 0 0 -44z"/>
<path d="M1970 3615 c-173 -34 -214 -55 -251 -127 -29 -56 -24 -138 21 -359
150 -748 425 -1768 681 -2532 117 -350 124 -365 184 -405 70 -46 123 -46 255
0 307 108 343 150 295 344 -25 105 -43 164 -149 496 -120 379 -205 672 -351
1213 -43 160 -142 575 -190 795 -77 352 -112 487 -136 526 -47 77 -150 91
-359 49z"/>
<path d="M6138 3620 c-77 -42 -93 -88 -193 -551 -163 -752 -319 -1327 -597
-2199 -69 -216 -112 -368 -115 -406 -10 -115 35 -164 214 -234 137 -54 248
-82 291 -74 87 17 135 105 258 479 285 869 509 1702 676 2520 55 271 41 358
-68 411 -67 33 -215 64 -334 70 -82 4 -100 2 -132 -16z"/>
<path d="M1330 3431 c-56 -17 -91 -43 -117 -89 -24 -40 -28 -57 -26 -112 4
-156 206 -1031 389 -1687 149 -537 377 -1249 442 -1383 34 -68 42 -77 91 -102
63 -32 83 -34 148 -12 57 19 110 57 125 89 13 30 0 80 -122 455 -289 892 -584
2004 -705 2660 -22 123 -27 137 -55 163 -26 23 -38 27 -88 26 -31 0 -68 -4
-82 -8z"/>
<path d="M6925 3430 c-37 -14 -46 -36 -76 -182 -208 -1008 -433 -1846 -748
-2795 -92 -276 -97 -310 -51 -353 31 -29 125 -70 159 -70 32 0 104 30 129 53
37 34 68 103 138 310 279 823 553 1835 713 2635 46 226 41 292 -27 356 -46 43
-181 69 -237 46z"/>
<path d="M944 3068 c-87 -92 -153 -192 -220 -333 -87 -183 -124 -328 -144
-555 -37 -425 31 -793 219 -1185 217 -451 522 -748 916 -890 111 -40 135 -43
135 -16 0 27 -39 160 -130 441 -112 347 -224 716 -285 940 -142 521 -227 861
-301 1200 -72 330 -106 470 -114 470 -4 0 -38 -33 -76 -72z"/>
<path d="M7371 3103 c-17 -64 -67 -278 -116 -498 -46 -207 -152 -640 -201
-825 -135 -502 -226 -809 -389 -1315 -51 -159 -100 -314 -109 -343 l-15 -52
24 0 c33 0 216 65 299 107 319 161 601 484 781 898 79 182 146 417 175 615 16
107 14 453 -4 585 -31 239 -113 461 -242 655 -45 69 -169 210 -184 210 -5 0
-14 -17 -19 -37z"/>
</g>
</svg>
